<mxfile host="app.diagrams.net" modified="2023-07-16T15:59:31.791Z" agent="Mozilla/5.0 (Windows NT 10.0; Win64; x64) AppleWebKit/537.36 (KHTML, like Gecko) Chrome/114.0.0.0 Safari/537.36" etag="yQVzcprwPneJh_ompV3v" version="21.5.0" type="github">
  <diagram name="Page-1" id="b5b7bab2-c9e2-2cf4-8b2a-24fd1a2a6d21">
    <mxGraphModel dx="1395" dy="630" grid="1" gridSize="10" guides="1" tooltips="1" connect="1" arrows="1" fold="1" page="1" pageScale="1" pageWidth="827" pageHeight="1169" background="none" math="0" shadow="0">
      <root>
        <mxCell id="0" />
        <mxCell id="1" parent="0" />
        <mxCell id="Ktcjv_wAiEfrh3ks5oHo-13" value="" style="group" vertex="1" connectable="0" parent="1">
          <mxGeometry x="280" y="80" width="160" height="560" as="geometry" />
        </mxCell>
        <mxCell id="Ktcjv_wAiEfrh3ks5oHo-14" value="&lt;font style=&quot;font-size: 14px;&quot;&gt;Data Governance&lt;/font&gt;" style="shape=folder;fontStyle=1;spacingTop=10;tabWidth=50;tabHeight=17;tabPosition=left;html=1;rounded=0;shadow=0;comic=0;labelBackgroundColor=none;strokeWidth=1;fontFamily=Verdana;fontSize=10;align=center;" vertex="1" parent="Ktcjv_wAiEfrh3ks5oHo-13">
          <mxGeometry width="160" height="560" as="geometry" />
        </mxCell>
        <mxCell id="6e0c8c40b5770093-6" value="" style="group" parent="1" vertex="1" connectable="0">
          <mxGeometry x="290" y="100" width="130" height="100" as="geometry" />
        </mxCell>
        <mxCell id="6e0c8c40b5770093-4" value="&lt;font style=&quot;font-size: 14px;&quot;&gt;Meta Data&lt;/font&gt;" style="shape=folder;fontStyle=1;spacingTop=10;tabWidth=50;tabHeight=17;tabPosition=left;html=1;rounded=0;shadow=0;comic=0;labelBackgroundColor=none;strokeWidth=1;fontFamily=Verdana;fontSize=10;align=center;" parent="6e0c8c40b5770093-6" vertex="1">
          <mxGeometry width="130" height="100" as="geometry" />
        </mxCell>
        <mxCell id="6e0c8c40b5770093-7" value="" style="group" parent="1" vertex="1" connectable="0">
          <mxGeometry x="295" y="320" width="130" height="100" as="geometry" />
        </mxCell>
        <mxCell id="6e0c8c40b5770093-8" value="&lt;font style=&quot;font-size: 14px;&quot;&gt;Data Catalog&lt;/font&gt;" style="shape=folder;fontStyle=1;spacingTop=10;tabWidth=50;tabHeight=17;tabPosition=left;html=1;rounded=0;shadow=0;comic=0;labelBackgroundColor=none;strokeWidth=1;fontFamily=Verdana;fontSize=10;align=center;" parent="6e0c8c40b5770093-7" vertex="1">
          <mxGeometry width="130" height="100" as="geometry" />
        </mxCell>
        <mxCell id="6e0c8c40b5770093-18" value="" style="group" parent="1" vertex="1" connectable="0">
          <mxGeometry x="680" y="80" width="280" height="130" as="geometry" />
        </mxCell>
        <mxCell id="6e0c8c40b5770093-11" value="&lt;font style=&quot;font-size: 18px;&quot;&gt;Data Sources&lt;/font&gt;" style="shape=folder;fontStyle=1;spacingTop=10;tabWidth=123;tabHeight=24;tabPosition=left;html=1;rounded=0;shadow=0;comic=0;labelBackgroundColor=none;strokeWidth=1;fontFamily=Verdana;fontSize=10;align=center;" parent="6e0c8c40b5770093-18" vertex="1">
          <mxGeometry width="280" height="130" as="geometry" />
        </mxCell>
        <mxCell id="6e0c8c40b5770093-19" value="" style="group" parent="1" vertex="1" connectable="0">
          <mxGeometry x="680" y="280" width="280" height="130" as="geometry" />
        </mxCell>
        <mxCell id="6e0c8c40b5770093-20" value="&lt;font style=&quot;font-size: 18px;&quot;&gt;Ingestion&amp;nbsp;&lt;/font&gt;" style="shape=folder;fontStyle=1;spacingTop=10;tabWidth=123;tabHeight=24;tabPosition=left;html=1;rounded=0;shadow=0;comic=0;labelBackgroundColor=none;strokeWidth=1;fontFamily=Verdana;fontSize=10;align=center;" parent="6e0c8c40b5770093-19" vertex="1">
          <mxGeometry width="280" height="130" as="geometry" />
        </mxCell>
        <mxCell id="6e0c8c40b5770093-30" value="" style="group" parent="1" vertex="1" connectable="0">
          <mxGeometry x="1236" y="343" width="250" height="120" as="geometry" />
        </mxCell>
        <mxCell id="6e0c8c40b5770093-24" value="" style="group" parent="6e0c8c40b5770093-30" vertex="1" connectable="0">
          <mxGeometry y="-45.842696629213485" width="250" height="120" as="geometry" />
        </mxCell>
        <mxCell id="6e0c8c40b5770093-25" value="&lt;font style=&quot;font-size: 18px;&quot;&gt;Security&amp;nbsp;&lt;/font&gt;" style="shape=folder;fontStyle=1;spacingTop=10;tabWidth=125;tabHeight=26;tabPosition=left;html=1;rounded=0;shadow=0;comic=0;labelBackgroundColor=none;strokeWidth=1;fontFamily=Verdana;fontSize=10;align=center;" parent="6e0c8c40b5770093-24" vertex="1">
          <mxGeometry width="250" height="120" as="geometry" />
        </mxCell>
        <mxCell id="6e0c8c40b5770093-67" style="edgeStyle=none;rounded=0;html=1;dashed=1;labelBackgroundColor=none;startFill=0;endArrow=open;endFill=0;endSize=10;fontFamily=Verdana;fontSize=10;exitX=0.25;exitY=1;exitDx=0;exitDy=0;exitPerimeter=0;" parent="1" source="6e0c8c40b5770093-33" edge="1">
          <mxGeometry relative="1" as="geometry">
            <mxPoint x="751" y="660" as="targetPoint" />
          </mxGeometry>
        </mxCell>
        <mxCell id="6e0c8c40b5770093-71" style="edgeStyle=elbowEdgeStyle;rounded=0;html=1;dashed=1;labelBackgroundColor=none;startFill=0;endArrow=open;endFill=0;endSize=10;fontFamily=Verdana;fontSize=10;elbow=vertical;exitX=0.991;exitY=0.468;exitDx=0;exitDy=0;exitPerimeter=0;" parent="1" source="6e0c8c40b5770093-33" target="6e0c8c40b5770093-25" edge="1">
          <mxGeometry relative="1" as="geometry">
            <Array as="points">
              <mxPoint x="940" y="559" />
            </Array>
          </mxGeometry>
        </mxCell>
        <mxCell id="6e0c8c40b5770093-33" value="&lt;font style=&quot;font-size: 18px;&quot;&gt;Processing&amp;nbsp;&lt;/font&gt;" style="shape=folder;fontStyle=1;spacingTop=10;tabWidth=123;tabHeight=24;tabPosition=left;html=1;rounded=0;shadow=0;comic=0;labelBackgroundColor=none;strokeColor=#000000;strokeWidth=1;fillColor=#ffffff;fontFamily=Verdana;fontSize=10;fontColor=#000000;align=center;" parent="1" vertex="1">
          <mxGeometry x="681" y="480.5" width="282" height="133.5" as="geometry" />
        </mxCell>
        <mxCell id="6e0c8c40b5770093-70" style="edgeStyle=none;rounded=0;html=1;dashed=1;labelBackgroundColor=none;startFill=0;endArrow=open;endFill=0;endSize=10;fontFamily=Verdana;fontSize=10;exitX=0;exitY=0;exitDx=280;exitDy=95.25;exitPerimeter=0;entryX=0.812;entryY=0.999;entryDx=0;entryDy=0;entryPerimeter=0;" parent="1" source="6e0c8c40b5770093-47" target="6e0c8c40b5770093-25" edge="1">
          <mxGeometry relative="1" as="geometry">
            <mxPoint x="981" y="760.25" as="sourcePoint" />
            <mxPoint x="1440" y="430" as="targetPoint" />
            <Array as="points">
              <mxPoint x="1181" y="760" />
              <mxPoint x="1401" y="760" />
              <mxPoint x="1441" y="760" />
              <mxPoint x="1441" y="700" />
              <mxPoint x="1440" y="570" />
            </Array>
          </mxGeometry>
        </mxCell>
        <mxCell id="6e0c8c40b5770093-47" value="&lt;font style=&quot;font-size: 18px;&quot;&gt;Storage&amp;nbsp;&lt;/font&gt;" style="shape=folder;fontStyle=1;spacingTop=10;tabWidth=123;tabHeight=24;tabPosition=left;html=1;rounded=0;shadow=0;comic=0;labelBackgroundColor=none;strokeWidth=1;fontFamily=Verdana;fontSize=10;align=center;" parent="1" vertex="1">
          <mxGeometry x="680" y="665" width="280" height="135" as="geometry" />
        </mxCell>
        <mxCell id="6e0c8c40b5770093-59" style="rounded=0;html=1;dashed=1;labelBackgroundColor=none;startFill=0;endArrow=open;endFill=0;endSize=10;fontFamily=Verdana;fontSize=10;entryX=0;entryY=0;entryPerimeter=0;edgeStyle=elbowEdgeStyle;entryDx=61.5;entryDy=0;exitX=0.225;exitY=1.015;exitDx=0;exitDy=0;exitPerimeter=0;" parent="1" edge="1" target="6e0c8c40b5770093-20" source="6e0c8c40b5770093-11">
          <mxGeometry relative="1" as="geometry">
            <mxPoint x="740" y="270" as="sourcePoint" />
            <mxPoint x="843.3275862068965" y="320.84482758620686" as="targetPoint" />
          </mxGeometry>
        </mxCell>
        <mxCell id="6e0c8c40b5770093-61" style="edgeStyle=none;rounded=0;html=1;dashed=1;labelBackgroundColor=none;startFill=0;endArrow=open;endFill=0;endSize=10;fontFamily=Verdana;fontSize=10;entryX=0;entryY=0;entryDx=61.5;entryDy=0;entryPerimeter=0;exitX=0.225;exitY=1;exitDx=0;exitDy=0;exitPerimeter=0;" parent="1" source="6e0c8c40b5770093-20" target="6e0c8c40b5770093-33" edge="1">
          <mxGeometry relative="1" as="geometry">
            <mxPoint x="790" y="500" as="targetPoint" />
          </mxGeometry>
        </mxCell>
        <mxCell id="6e0c8c40b5770093-62" style="edgeStyle=none;rounded=0;html=1;dashed=1;labelBackgroundColor=none;startFill=0;endArrow=open;endFill=0;endSize=10;fontFamily=Verdana;fontSize=10;" parent="1" target="6e0c8c40b5770093-25" edge="1">
          <mxGeometry relative="1" as="geometry">
            <mxPoint x="960" y="360" as="sourcePoint" />
          </mxGeometry>
        </mxCell>
        <mxCell id="6e0c8c40b5770093-63" style="edgeStyle=orthogonalEdgeStyle;rounded=0;html=1;dashed=1;labelBackgroundColor=none;startFill=0;endArrow=open;endFill=0;endSize=10;fontFamily=Verdana;fontSize=10;exitX=0;exitY=0;exitDx=280;exitDy=77;exitPerimeter=0;entryX=0.176;entryY=-0.018;entryDx=0;entryDy=0;entryPerimeter=0;" parent="1" source="6e0c8c40b5770093-11" target="6e0c8c40b5770093-25" edge="1">
          <mxGeometry relative="1" as="geometry">
            <Array as="points">
              <mxPoint x="1280" y="157" />
            </Array>
            <mxPoint x="1280" y="293" as="targetPoint" />
          </mxGeometry>
        </mxCell>
        <mxCell id="6e0c8c40b5770093-73" value="&lt;font style=&quot;font-size: 18px;&quot;&gt;Analytics platform : Layered Decomposition View&lt;/font&gt;" style="text;html=1;align=left;verticalAlign=top;spacingTop=-4;fontSize=10;fontFamily=Verdana;fontStyle=1" parent="1" vertex="1">
          <mxGeometry x="200" y="60" width="200" height="20" as="geometry" />
        </mxCell>
        <mxCell id="Ktcjv_wAiEfrh3ks5oHo-6" value="&lt;font style=&quot;font-size: 18px;&quot;&gt;Analytics&lt;/font&gt;" style="shape=folder;fontStyle=1;spacingTop=10;tabWidth=123;tabHeight=24;tabPosition=left;html=1;rounded=0;shadow=0;comic=0;labelBackgroundColor=none;strokeWidth=1;fontFamily=Verdana;fontSize=10;align=center;" vertex="1" parent="1">
          <mxGeometry x="681" y="850" width="280" height="140" as="geometry" />
        </mxCell>
        <mxCell id="Ktcjv_wAiEfrh3ks5oHo-8" value="&lt;font style=&quot;font-size: 18px;&quot;&gt;Visualization&lt;/font&gt;" style="shape=folder;fontStyle=1;spacingTop=10;tabWidth=123;tabHeight=24;tabPosition=left;html=1;rounded=0;shadow=0;comic=0;labelBackgroundColor=none;strokeWidth=1;fontFamily=Verdana;fontSize=10;align=center;" vertex="1" parent="1">
          <mxGeometry x="680" y="1040" width="280" height="130" as="geometry" />
        </mxCell>
        <mxCell id="Ktcjv_wAiEfrh3ks5oHo-12" style="edgeStyle=none;rounded=0;html=1;dashed=1;labelBackgroundColor=none;startFill=0;endArrow=open;endFill=0;endSize=10;fontFamily=Verdana;fontSize=10;" edge="1" parent="1">
          <mxGeometry relative="1" as="geometry">
            <mxPoint x="741" y="990" as="sourcePoint" />
            <mxPoint x="741" y="1040" as="targetPoint" />
            <Array as="points">
              <mxPoint x="740" y="990" />
            </Array>
          </mxGeometry>
        </mxCell>
        <mxCell id="Ktcjv_wAiEfrh3ks5oHo-15" value="" style="group" vertex="1" connectable="0" parent="1">
          <mxGeometry x="280" y="684.5" width="240" height="80" as="geometry" />
        </mxCell>
        <mxCell id="Ktcjv_wAiEfrh3ks5oHo-16" value="&lt;font style=&quot;font-size: 14px;&quot;&gt;Master data management&amp;nbsp;&lt;/font&gt;" style="shape=folder;fontStyle=1;spacingTop=10;tabWidth=50;tabHeight=17;tabPosition=left;html=1;rounded=0;shadow=0;comic=0;labelBackgroundColor=none;strokeWidth=1;fontFamily=Verdana;fontSize=10;align=center;" vertex="1" parent="Ktcjv_wAiEfrh3ks5oHo-15">
          <mxGeometry y="11" width="240" height="80" as="geometry" />
        </mxCell>
        <mxCell id="Ktcjv_wAiEfrh3ks5oHo-17" value="" style="group" vertex="1" connectable="0" parent="1">
          <mxGeometry x="280" y="880" width="240" height="80" as="geometry" />
        </mxCell>
        <mxCell id="Ktcjv_wAiEfrh3ks5oHo-18" value="&lt;font style=&quot;font-size: 14px;&quot;&gt;Data Lineage&lt;/font&gt;" style="shape=folder;fontStyle=1;spacingTop=10;tabWidth=50;tabHeight=17;tabPosition=left;html=1;rounded=0;shadow=0;comic=0;labelBackgroundColor=none;strokeWidth=1;fontFamily=Verdana;fontSize=10;align=center;" vertex="1" parent="Ktcjv_wAiEfrh3ks5oHo-17">
          <mxGeometry width="240" height="80" as="geometry" />
        </mxCell>
        <mxCell id="Ktcjv_wAiEfrh3ks5oHo-19" style="edgeStyle=none;rounded=0;html=1;dashed=1;labelBackgroundColor=none;startFill=0;endArrow=open;endFill=0;endSize=10;fontFamily=Verdana;fontSize=10;exitX=0.25;exitY=1;exitDx=0;exitDy=0;exitPerimeter=0;" edge="1" parent="1">
          <mxGeometry relative="1" as="geometry">
            <mxPoint x="740" y="800" as="sourcePoint" />
            <mxPoint x="740" y="846" as="targetPoint" />
          </mxGeometry>
        </mxCell>
        <mxCell id="Ktcjv_wAiEfrh3ks5oHo-20" style="rounded=0;html=1;dashed=1;labelBackgroundColor=none;startFill=0;endArrow=open;endFill=0;endSize=10;fontFamily=Verdana;fontSize=10;entryX=0;entryY=0;entryPerimeter=0;edgeStyle=elbowEdgeStyle;entryDx=130;entryDy=43.5;exitX=0;exitY=0;exitDx=0;exitDy=77;exitPerimeter=0;" edge="1" parent="1" source="6e0c8c40b5770093-11" target="6e0c8c40b5770093-4">
          <mxGeometry relative="1" as="geometry">
            <mxPoint x="753" y="222" as="sourcePoint" />
            <mxPoint x="752" y="290" as="targetPoint" />
          </mxGeometry>
        </mxCell>
        <mxCell id="Ktcjv_wAiEfrh3ks5oHo-21" value="uses" style="edgeLabel;html=1;align=center;verticalAlign=middle;resizable=0;points=[];" vertex="1" connectable="0" parent="Ktcjv_wAiEfrh3ks5oHo-20">
          <mxGeometry x="-0.2028" y="1" relative="1" as="geometry">
            <mxPoint as="offset" />
          </mxGeometry>
        </mxCell>
        <mxCell id="Ktcjv_wAiEfrh3ks5oHo-24" style="rounded=0;html=1;dashed=1;labelBackgroundColor=none;startFill=0;endArrow=open;endFill=0;endSize=10;fontFamily=Verdana;fontSize=10;entryX=0;entryY=0;entryPerimeter=0;edgeStyle=elbowEdgeStyle;entryDx=130;entryDy=56.75;exitX=0;exitY=0;exitDx=0;exitDy=50.5;exitPerimeter=0;" edge="1" parent="1" source="6e0c8c40b5770093-20" target="6e0c8c40b5770093-4">
          <mxGeometry relative="1" as="geometry">
            <mxPoint x="690" y="167" as="sourcePoint" />
            <mxPoint x="420" y="154" as="targetPoint" />
            <Array as="points">
              <mxPoint x="520" y="250" />
            </Array>
          </mxGeometry>
        </mxCell>
        <mxCell id="Ktcjv_wAiEfrh3ks5oHo-25" value="uses" style="edgeLabel;html=1;align=center;verticalAlign=middle;resizable=0;points=[];" vertex="1" connectable="0" parent="Ktcjv_wAiEfrh3ks5oHo-24">
          <mxGeometry x="-0.2028" y="1" relative="1" as="geometry">
            <mxPoint as="offset" />
          </mxGeometry>
        </mxCell>
        <mxCell id="Ktcjv_wAiEfrh3ks5oHo-26" style="rounded=0;html=1;dashed=1;labelBackgroundColor=none;startFill=0;endArrow=open;endFill=0;endSize=10;fontFamily=Verdana;fontSize=10;entryX=0;entryY=0;entryPerimeter=0;edgeStyle=elbowEdgeStyle;entryDx=130;entryDy=48.5;exitX=0;exitY=0;exitDx=0;exitDy=77;exitPerimeter=0;" edge="1" parent="1" source="6e0c8c40b5770093-20" target="6e0c8c40b5770093-8">
          <mxGeometry relative="1" as="geometry">
            <mxPoint x="684" y="366.5" as="sourcePoint" />
            <mxPoint x="414" y="353.5" as="targetPoint" />
          </mxGeometry>
        </mxCell>
        <mxCell id="Ktcjv_wAiEfrh3ks5oHo-27" value="uses" style="edgeLabel;html=1;align=center;verticalAlign=middle;resizable=0;points=[];" vertex="1" connectable="0" parent="Ktcjv_wAiEfrh3ks5oHo-26">
          <mxGeometry x="-0.2028" y="1" relative="1" as="geometry">
            <mxPoint as="offset" />
          </mxGeometry>
        </mxCell>
        <mxCell id="Ktcjv_wAiEfrh3ks5oHo-29" style="rounded=0;html=1;dashed=1;labelBackgroundColor=none;startFill=0;endArrow=open;endFill=0;endSize=10;fontFamily=Verdana;fontSize=10;entryX=0;entryY=0;entryPerimeter=0;edgeStyle=elbowEdgeStyle;entryDx=0;entryDy=58.5;exitX=0;exitY=0;exitDx=0;exitDy=64.25;exitPerimeter=0;" edge="1" parent="1" source="Ktcjv_wAiEfrh3ks5oHo-14" target="6e0c8c40b5770093-4">
          <mxGeometry relative="1" as="geometry">
            <mxPoint x="510" y="633" as="sourcePoint" />
            <mxPoint x="240" y="620" as="targetPoint" />
            <Array as="points">
              <mxPoint x="230" y="370" />
            </Array>
          </mxGeometry>
        </mxCell>
        <mxCell id="Ktcjv_wAiEfrh3ks5oHo-30" value="uses" style="edgeLabel;html=1;align=center;verticalAlign=middle;resizable=0;points=[];" vertex="1" connectable="0" parent="Ktcjv_wAiEfrh3ks5oHo-29">
          <mxGeometry x="-0.2028" y="1" relative="1" as="geometry">
            <mxPoint y="-135" as="offset" />
          </mxGeometry>
        </mxCell>
        <mxCell id="Ktcjv_wAiEfrh3ks5oHo-31" style="rounded=0;html=1;dashed=1;labelBackgroundColor=none;startFill=0;endArrow=open;endFill=0;endSize=10;fontFamily=Verdana;fontSize=10;edgeStyle=elbowEdgeStyle;exitX=0;exitY=0;exitDx=0;exitDy=48.5;exitPerimeter=0;" edge="1" parent="1" source="Ktcjv_wAiEfrh3ks5oHo-14">
          <mxGeometry relative="1" as="geometry">
            <mxPoint x="490" y="480.5" as="sourcePoint" />
            <mxPoint x="280" y="370" as="targetPoint" />
            <Array as="points">
              <mxPoint x="240" y="440" />
            </Array>
          </mxGeometry>
        </mxCell>
        <mxCell id="Ktcjv_wAiEfrh3ks5oHo-32" value="uses" style="edgeLabel;html=1;align=center;verticalAlign=middle;resizable=0;points=[];" vertex="1" connectable="0" parent="Ktcjv_wAiEfrh3ks5oHo-31">
          <mxGeometry x="-0.2028" y="1" relative="1" as="geometry">
            <mxPoint as="offset" />
          </mxGeometry>
        </mxCell>
        <mxCell id="Ktcjv_wAiEfrh3ks5oHo-34" style="rounded=0;html=1;dashed=1;labelBackgroundColor=none;startFill=0;endArrow=open;endFill=0;endSize=10;fontFamily=Verdana;fontSize=10;edgeStyle=elbowEdgeStyle;exitX=0;exitY=0;exitDx=0;exitDy=76;exitPerimeter=0;" edge="1" parent="1" source="Ktcjv_wAiEfrh3ks5oHo-14">
          <mxGeometry relative="1" as="geometry">
            <mxPoint x="230" y="585" as="sourcePoint" />
            <mxPoint x="280" y="940" as="targetPoint" />
            <Array as="points">
              <mxPoint x="230" y="930" />
            </Array>
          </mxGeometry>
        </mxCell>
        <mxCell id="Ktcjv_wAiEfrh3ks5oHo-35" value="uses" style="edgeLabel;html=1;align=center;verticalAlign=middle;resizable=0;points=[];" vertex="1" connectable="0" parent="Ktcjv_wAiEfrh3ks5oHo-34">
          <mxGeometry x="-0.2028" y="1" relative="1" as="geometry">
            <mxPoint as="offset" />
          </mxGeometry>
        </mxCell>
        <mxCell id="Ktcjv_wAiEfrh3ks5oHo-36" style="rounded=0;html=1;dashed=1;labelBackgroundColor=none;startFill=0;endArrow=open;endFill=0;endSize=10;fontFamily=Verdana;fontSize=10;edgeStyle=elbowEdgeStyle;exitX=0;exitY=0;exitDx=0;exitDy=105.5;exitPerimeter=0;" edge="1" parent="1" source="Ktcjv_wAiEfrh3ks5oHo-14">
          <mxGeometry relative="1" as="geometry">
            <mxPoint x="530" y="664" as="sourcePoint" />
            <mxPoint x="280" y="730" as="targetPoint" />
            <Array as="points">
              <mxPoint x="250" y="670" />
            </Array>
          </mxGeometry>
        </mxCell>
        <mxCell id="Ktcjv_wAiEfrh3ks5oHo-37" value="uses" style="edgeLabel;html=1;align=center;verticalAlign=middle;resizable=0;points=[];" vertex="1" connectable="0" parent="Ktcjv_wAiEfrh3ks5oHo-36">
          <mxGeometry x="-0.2028" y="1" relative="1" as="geometry">
            <mxPoint as="offset" />
          </mxGeometry>
        </mxCell>
        <mxCell id="Ktcjv_wAiEfrh3ks5oHo-38" style="rounded=0;html=1;dashed=1;labelBackgroundColor=none;startFill=0;endArrow=open;endFill=0;endSize=10;fontFamily=Verdana;fontSize=10;edgeStyle=elbowEdgeStyle;exitX=0;exitY=0;exitDx=0;exitDy=106.125;exitPerimeter=0;entryX=0;entryY=0;entryDx=240;entryDy=32.75;entryPerimeter=0;" edge="1" parent="1" source="6e0c8c40b5770093-33" target="Ktcjv_wAiEfrh3ks5oHo-16">
          <mxGeometry relative="1" as="geometry">
            <mxPoint x="630" y="664" as="sourcePoint" />
            <mxPoint x="520" y="741" as="targetPoint" />
          </mxGeometry>
        </mxCell>
        <mxCell id="Ktcjv_wAiEfrh3ks5oHo-39" value="uses" style="edgeLabel;html=1;align=center;verticalAlign=middle;resizable=0;points=[];" vertex="1" connectable="0" parent="Ktcjv_wAiEfrh3ks5oHo-38">
          <mxGeometry x="-0.2028" y="1" relative="1" as="geometry">
            <mxPoint as="offset" />
          </mxGeometry>
        </mxCell>
        <mxCell id="Ktcjv_wAiEfrh3ks5oHo-40" style="rounded=0;html=1;dashed=1;labelBackgroundColor=none;startFill=0;endArrow=open;endFill=0;endSize=10;fontFamily=Verdana;fontSize=10;edgeStyle=elbowEdgeStyle;exitX=0;exitY=0;exitDx=0;exitDy=51.375;exitPerimeter=0;entryX=0;entryY=0;entryDx=130;entryDy=79.25;entryPerimeter=0;" edge="1" parent="1" source="6e0c8c40b5770093-33" target="6e0c8c40b5770093-8">
          <mxGeometry relative="1" as="geometry">
            <mxPoint x="680" y="409" as="sourcePoint" />
            <mxPoint x="410" y="396" as="targetPoint" />
          </mxGeometry>
        </mxCell>
        <mxCell id="Ktcjv_wAiEfrh3ks5oHo-41" value="uses" style="edgeLabel;html=1;align=center;verticalAlign=middle;resizable=0;points=[];" vertex="1" connectable="0" parent="Ktcjv_wAiEfrh3ks5oHo-40">
          <mxGeometry x="-0.2028" y="1" relative="1" as="geometry">
            <mxPoint as="offset" />
          </mxGeometry>
        </mxCell>
        <mxCell id="Ktcjv_wAiEfrh3ks5oHo-42" style="rounded=0;html=1;dashed=1;labelBackgroundColor=none;startFill=0;endArrow=open;endFill=0;endSize=10;fontFamily=Verdana;fontSize=10;entryX=0;entryY=0;entryPerimeter=0;edgeStyle=elbowEdgeStyle;entryDx=240;entryDy=48.5;exitX=0;exitY=0.858;exitDx=0;exitDy=0;exitPerimeter=0;" edge="1" parent="1" source="6e0c8c40b5770093-47" target="Ktcjv_wAiEfrh3ks5oHo-18">
          <mxGeometry relative="1" as="geometry">
            <mxPoint x="650" y="850" as="sourcePoint" />
            <mxPoint x="380" y="837" as="targetPoint" />
          </mxGeometry>
        </mxCell>
        <mxCell id="Ktcjv_wAiEfrh3ks5oHo-43" value="uses" style="edgeLabel;html=1;align=center;verticalAlign=middle;resizable=0;points=[];" vertex="1" connectable="0" parent="Ktcjv_wAiEfrh3ks5oHo-42">
          <mxGeometry x="-0.2028" y="1" relative="1" as="geometry">
            <mxPoint as="offset" />
          </mxGeometry>
        </mxCell>
        <mxCell id="Ktcjv_wAiEfrh3ks5oHo-44" style="rounded=0;html=1;dashed=1;labelBackgroundColor=none;startFill=0;endArrow=open;endFill=0;endSize=10;fontFamily=Verdana;fontSize=10;entryX=0;entryY=0;entryPerimeter=0;edgeStyle=elbowEdgeStyle;entryDx=240;entryDy=48.5;exitX=0;exitY=0;exitDx=0;exitDy=79.5;exitPerimeter=0;" edge="1" parent="1" source="6e0c8c40b5770093-47" target="Ktcjv_wAiEfrh3ks5oHo-16">
          <mxGeometry relative="1" as="geometry">
            <mxPoint x="740" y="738.5" as="sourcePoint" />
            <mxPoint x="470" y="725.5" as="targetPoint" />
          </mxGeometry>
        </mxCell>
        <mxCell id="Ktcjv_wAiEfrh3ks5oHo-45" value="uses" style="edgeLabel;html=1;align=center;verticalAlign=middle;resizable=0;points=[];" vertex="1" connectable="0" parent="Ktcjv_wAiEfrh3ks5oHo-44">
          <mxGeometry x="-0.2028" y="1" relative="1" as="geometry">
            <mxPoint as="offset" />
          </mxGeometry>
        </mxCell>
        <mxCell id="6e0c8c40b5770093-72" value="" style="shape=folder;fontStyle=1;spacingTop=10;tabWidth=194;tabHeight=22;tabPosition=left;html=1;rounded=0;shadow=0;comic=0;labelBackgroundColor=none;strokeWidth=1;fillColor=none;fontFamily=Verdana;fontSize=10;align=center;" parent="1" vertex="1">
          <mxGeometry x="200" y="40" width="1320" height="1160" as="geometry" />
        </mxCell>
      </root>
    </mxGraphModel>
  </diagram>
</mxfile>
